<?xml version="1.0" encoding="UTF-8" standalone="no"?>
<!-- Created with Inkscape (http://www.inkscape.org/) -->

<svg
   xmlns:dc="http://purl.org/dc/elements/1.1/"
   xmlns:cc="http://creativecommons.org/ns#"
   xmlns:rdf="http://www.w3.org/1999/02/22-rdf-syntax-ns#"
   xmlns:svg="http://www.w3.org/2000/svg"
   xmlns="http://www.w3.org/2000/svg"
   xmlns:sodipodi="http://sodipodi.sourceforge.net/DTD/sodipodi-0.dtd"
   xmlns:inkscape="http://www.inkscape.org/namespaces/inkscape"
   width="586.90472"
   height="507.27869"
   id="svg3871"
   version="1.1"
   inkscape:version="0.48.4 r9939"
   sodipodi:docname="MASAGO-Logo_M_SinNombre_Transparent-OK.svg">
  <defs
     id="defs3873" />
  <sodipodi:namedview
     id="base"
     pagecolor="#ffffff"
     bordercolor="#666666"
     borderopacity="1.0"
     inkscape:pageopacity="0.0"
     inkscape:pageshadow="2"
     inkscape:zoom="1.4"
     inkscape:cx="310.14068"
     inkscape:cy="265.67091"
     inkscape:document-units="px"
     inkscape:current-layer="layer1"
     showgrid="false"
     inkscape:window-width="1879"
     inkscape:window-height="1056"
     inkscape:window-x="41"
     inkscape:window-y="1224"
     inkscape:window-maximized="1"
     fit-margin-top="0"
     fit-margin-left="0"
     fit-margin-right="0"
     fit-margin-bottom="0" />
  <metadata
     id="metadata3876">
    <rdf:RDF>
      <cc:Work
         rdf:about="">
        <dc:format>image/svg+xml</dc:format>
        <dc:type
           rdf:resource="http://purl.org/dc/dcmitype/StillImage" />
        <dc:title />
      </cc:Work>
    </rdf:RDF>
  </metadata>
  <g
     inkscape:label="Layer 1"
     inkscape:groupmode="layer"
     id="layer1"
     transform="translate(-77.97622,-127.29428)">
    <g
       id="g4061"
       inkscape:export-xdpi="628.10999"
       inkscape:export-ydpi="628.10999">
      <path
         id="path3094"
         d="m 365.1875,171.375 c -50.88584,0 -96.01539,24.54725 -124.25,62.4375 33.86176,-12.29817 63.3013,9.93047 82.0625,40.53125 l 35.375,58 59.1875,-88 1.78125,0 22.25,116.1875 c 6.09395,31.23147 16.58029,60.0815 45.96875,60.65625 20.37247,-26.2221 32.53125,-59.16035 32.53125,-94.9375 0,-85.54031 -69.36594,-154.875 -154.90625,-154.875 z m -128.71875,68.6875 c -16.53171,24.63893 -26.15625,54.287 -26.15625,86.1875 0,85.54031 69.33469,154.875 154.875,154.875 47.65255,0 90.27568,-21.52344 118.6875,-55.375 -33.55357,9.67891 -74.0506,-7.18097 -86.78125,-66.40625 L 387.96875,317.25 354,367.6875 c 0,0 -8.55349,12.52449 -8.15625,23.25 l -1.96875,0 -48.28125,-82.84375 -9.9375,66.75 0,0.78125 c 0,4.36966 3.38034,8.5625 7.75,8.5625 l 3.1875,0 0,1.78125 -43.5,0 0,-2 3.1875,0 c 6.95173,0 13.08952,-4.35865 14.28125,-11.90625 l 13.90625,-85.21875 c -10.92155,-18.88132 -28.74354,-44.64761 -48,-46.78125 z"
         style="fill:#000000;fill-opacity:1;fill-rule:evenodd;stroke:#000000;stroke-width:1.34793651px;stroke-linecap:butt;stroke-linejoin:miter;stroke-opacity:1"
         inkscape:connector-curvature="0" />
      <path
         sodipodi:nodetypes="cscccccccccccccccccccccccccscc"
         inkscape:connector-curvature="0"
         id="path3898"
         d="m 621.83645,438.66542 c 0,-162.66668 -112.41519,-297.03408 -251.08638,-297.03408 -138.67117,0 -251.08638,134.3674 -251.08638,297.03408 0,67.13784 -0.0446,65.48605 -0.0446,65.48605 l -0.003,1.73341 57.4371,0.17092 0,40.15357 0.60224,28.49614 c 0,0 -45.53131,8.86952 -66.47725,43.40426 l 260.52781,0.54569 260.52783,-0.56202 c -20.94594,-34.53472 -66.47725,-43.40425 -66.47725,-43.40425 l 0.60224,-28.49614 0,-40.15357 55.43211,0 m 42.93149,1.26269 -0.12627,16.16244 -82.83252,0 -0.37529,39.79582 c 0,0 56.39036,12.00041 75.31956,70.6311 -150.70781,-0.035 -285.09118,0.52291 -285.09118,0.52291 0,0 -134.20479,-0.54152 -284.912591,-0.50654 18.929191,-58.6307 75.319551,-70.63111 75.319551,-70.63111 l -0.3753,-39.79582 -83.211325,0.0631 -0.126259,-16.92005 c 0,0 0,0.44194 -0.176054,-86.67973 0,-161.53858 130.952908,-292.4915 292.491498,-292.4915 161.53859,0 292.4915,130.95292 292.4915,292.4915 0,0 -1.08153,-86.11151 0,0"
         style="fill:#000000;fill-opacity:1;stroke:#000000;stroke-width:0.31702307;stroke-miterlimit:4;stroke-opacity:1" />
    </g>
    <g
       transform="matrix(2.482762,0,0,2.482762,116.53967,-1618.6068)"
       style="font-size:80px;font-style:normal;font-variant:normal;font-weight:900;font-stretch:normal;line-height:125%;letter-spacing:0px;word-spacing:0px;fill:#ffffff;fill-opacity:1;stroke:none;display:inline;font-family:Cinzel Decorative;-inkscape-font-specification:Cinzel Decorative Heavy"
       id="flowRoot3001-3" />
  </g>
</svg>
